<mxfile host="65bd71144e" modified="2021-02-23T09:48:10.722Z" agent="5.0 (Windows NT 10.0; Win64; x64) AppleWebKit/537.36 (KHTML, like Gecko) Code/1.53.2 Chrome/87.0.4280.141 Electron/11.2.1 Safari/537.36" etag="jyvnZjidaIYz7IN6lJDZ" version="14.4.2" type="embed">
    <diagram id="St312X9aujkxV1xa29DO" name="ページ1">
        <mxGraphModel dx="565" dy="266" grid="1" gridSize="10" guides="1" tooltips="1" connect="1" arrows="1" fold="1" page="1" pageScale="1" pageWidth="827" pageHeight="1169" math="0" shadow="0">
            <root>
                <mxCell id="0"/>
                <mxCell id="1" parent="0"/>
                <mxCell id="2" value="" style="rounded=0;whiteSpace=wrap;html=1;strokeColor=none;fillColor=#99CCFF;" parent="1" vertex="1">
                    <mxGeometry x="20" y="150" width="350" height="350" as="geometry"/>
                </mxCell>
                <mxCell id="3" value="" style="rounded=0;whiteSpace=wrap;html=1;strokeColor=none;fillColor=#FFCC99;" parent="1" vertex="1">
                    <mxGeometry x="380" y="150" width="470" height="350" as="geometry"/>
                </mxCell>
                <mxCell id="8" value="workspace/frontend/&lt;br&gt;&lt;br&gt;├ src&lt;br&gt;&lt;br&gt;├ webpack_build/dist/" style="rounded=1;whiteSpace=wrap;html=1;strokeColor=none;fillColor=#CCE5FF;fontColor=#000000;" parent="1" vertex="1">
                    <mxGeometry x="40" y="312" width="150" height="160" as="geometry"/>
                </mxCell>
                <mxCell id="9" value="workspace/backend/&lt;br&gt;&lt;br&gt;├ src&lt;br&gt;&lt;br&gt;├ webpack_build/dist/" style="rounded=1;whiteSpace=wrap;html=1;strokeColor=none;fillColor=#CCE5FF;fontColor=#000000;" parent="1" vertex="1">
                    <mxGeometry x="200" y="312" width="150" height="160" as="geometry"/>
                </mxCell>
                <mxCell id="5" value="" style="rounded=0;whiteSpace=wrap;html=1;strokeColor=#000000;fillColor=#FFFFFF;" parent="1" vertex="1">
                    <mxGeometry x="94.5" y="160" width="201" height="162" as="geometry"/>
                </mxCell>
                <mxCell id="4" value="" style="shape=image;html=1;verticalAlign=top;verticalLabelPosition=bottom;labelBackgroundColor=#ffffff;imageAspect=0;aspect=fixed;image=https://cdn4.iconfinder.com/data/icons/logos-and-brands-1/512/97_Docker_logo_logos-128.png;fillColor=#FFE6CC;" parent="1" vertex="1">
                    <mxGeometry x="171" y="293" width="48" height="48" as="geometry"/>
                </mxCell>
                <mxCell id="10" value="/var/www/" style="rounded=1;whiteSpace=wrap;html=1;strokeColor=none;fillColor=#FFE6CC;fontColor=#000000;" parent="1" vertex="1">
                    <mxGeometry x="422" y="312" width="150" height="160" as="geometry"/>
                </mxCell>
                <mxCell id="6" value="" style="rounded=0;whiteSpace=wrap;html=1;strokeColor=#000000;fillColor=#FFFFFF;" parent="1" vertex="1">
                    <mxGeometry x="441.5" y="160" width="111" height="162" as="geometry"/>
                </mxCell>
                <mxCell id="7" value="" style="shape=image;html=1;verticalAlign=top;verticalLabelPosition=bottom;labelBackgroundColor=#ffffff;imageAspect=0;aspect=fixed;image=https://cdn4.iconfinder.com/data/icons/logos-and-brands-1/512/97_Docker_logo_logos-128.png;fillColor=#FFE6CC;" parent="1" vertex="1">
                    <mxGeometry x="473" y="293" width="48" height="48" as="geometry"/>
                </mxCell>
                <mxCell id="15" value="" style="rounded=0;whiteSpace=wrap;html=1;strokeColor=#000000;fillColor=#FFFFFF;" parent="1" vertex="1">
                    <mxGeometry x="670" y="322" width="111" height="102" as="geometry"/>
                </mxCell>
                <mxCell id="16" value="" style="shape=image;html=1;verticalAlign=top;verticalLabelPosition=bottom;labelBackgroundColor=#ffffff;imageAspect=0;aspect=fixed;image=https://cdn4.iconfinder.com/data/icons/logos-and-brands-1/512/97_Docker_logo_logos-128.png;fillColor=#FFE6CC;" parent="1" vertex="1">
                    <mxGeometry x="701.5" y="395" width="48" height="48" as="geometry"/>
                </mxCell>
                <mxCell id="17" value="[Ubuntu]" style="rounded=0;whiteSpace=wrap;html=1;strokeColor=none;fillColor=#E6E6E6;fontColor=#000000;" parent="1" vertex="1">
                    <mxGeometry x="100" y="270" width="190" height="29" as="geometry"/>
                </mxCell>
                <mxCell id="18" value="NodeJS" style="rounded=0;whiteSpace=wrap;html=1;strokeColor=none;fillColor=#E6E6E6;fontColor=#000000;" parent="1" vertex="1">
                    <mxGeometry x="100" y="238" width="190" height="29" as="geometry"/>
                </mxCell>
                <mxCell id="19" value="Webpack" style="rounded=0;whiteSpace=wrap;html=1;strokeColor=none;fillColor=#E6E6E6;fontColor=#000000;" parent="1" vertex="1">
                    <mxGeometry x="100" y="205" width="60" height="29" as="geometry"/>
                </mxCell>
                <mxCell id="20" value="Express" style="rounded=0;whiteSpace=wrap;html=1;strokeColor=none;fillColor=#E6E6E6;fontColor=#000000;" parent="1" vertex="1">
                    <mxGeometry x="230" y="170" width="60" height="29" as="geometry"/>
                </mxCell>
                <mxCell id="22" value="ESLint" style="rounded=0;whiteSpace=wrap;html=1;strokeColor=none;fillColor=#E6E6E6;fontColor=#000000;" parent="1" vertex="1">
                    <mxGeometry x="165" y="205" width="60" height="29" as="geometry"/>
                </mxCell>
                <mxCell id="23" value="Prettier" style="rounded=0;whiteSpace=wrap;html=1;strokeColor=none;fillColor=#E6E6E6;fontColor=#000000;" parent="1" vertex="1">
                    <mxGeometry x="230" y="205" width="60" height="29" as="geometry"/>
                </mxCell>
                <mxCell id="24" value="React" style="rounded=0;whiteSpace=wrap;html=1;strokeColor=none;fillColor=#E6E6E6;fontColor=#000000;" parent="1" vertex="1">
                    <mxGeometry x="165" y="170" width="60" height="29" as="geometry"/>
                </mxCell>
                <mxCell id="25" value="TypeScript" style="rounded=0;whiteSpace=wrap;html=1;strokeColor=none;fillColor=#E6E6E6;fontColor=#000000;" parent="1" vertex="1">
                    <mxGeometry x="100" y="170" width="60" height="29" as="geometry"/>
                </mxCell>
                <mxCell id="26" value="[Ubuntu]" style="rounded=0;whiteSpace=wrap;html=1;strokeColor=none;fillColor=#E6E6E6;fontColor=#000000;" parent="1" vertex="1">
                    <mxGeometry x="447" y="270" width="100" height="29" as="geometry"/>
                </mxCell>
                <mxCell id="28" value="Nginx" style="rounded=0;whiteSpace=wrap;html=1;strokeColor=none;fillColor=#E6E6E6;fontColor=#000000;" parent="1" vertex="1">
                    <mxGeometry x="447" y="238" width="100" height="29" as="geometry"/>
                </mxCell>
                <mxCell id="29" value="NodeJS" style="rounded=0;whiteSpace=wrap;html=1;strokeColor=none;fillColor=#E6E6E6;fontColor=#000000;" parent="1" vertex="1">
                    <mxGeometry x="447" y="205" width="100" height="29" as="geometry"/>
                </mxCell>
                <mxCell id="31" value="[Ubuntu]" style="rounded=0;whiteSpace=wrap;html=1;strokeColor=none;fillColor=#E6E6E6;fontColor=#000000;" parent="1" vertex="1">
                    <mxGeometry x="675.5" y="370" width="100" height="29" as="geometry"/>
                </mxCell>
                <mxCell id="32" value="MySQL8" style="rounded=0;whiteSpace=wrap;html=1;strokeColor=none;fillColor=#E6E6E6;fontColor=#000000;" parent="1" vertex="1">
                    <mxGeometry x="675.5" y="337" width="100" height="29" as="geometry"/>
                </mxCell>
                <mxCell id="33" value="" style="rounded=0;whiteSpace=wrap;html=1;strokeColor=#000000;fillColor=#FFFFFF;" parent="1" vertex="1">
                    <mxGeometry x="670" y="172" width="111" height="102" as="geometry"/>
                </mxCell>
                <mxCell id="34" value="" style="shape=image;html=1;verticalAlign=top;verticalLabelPosition=bottom;labelBackgroundColor=#ffffff;imageAspect=0;aspect=fixed;image=https://cdn4.iconfinder.com/data/icons/logos-and-brands-1/512/97_Docker_logo_logos-128.png;fillColor=#FFE6CC;" parent="1" vertex="1">
                    <mxGeometry x="701.5" y="245" width="48" height="48" as="geometry"/>
                </mxCell>
                <mxCell id="35" value="[phpMyAdmin]" style="rounded=0;whiteSpace=wrap;html=1;strokeColor=none;fillColor=#E6E6E6;fontColor=#000000;" parent="1" vertex="1">
                    <mxGeometry x="675.5" y="220" width="100" height="29" as="geometry"/>
                </mxCell>
                <mxCell id="37" value="" style="shape=note;whiteSpace=wrap;html=1;backgroundOutline=1;darkOpacity=0.05;fontColor=#000000;fillColor=#FFFFFF;strokeColor=#000000;" parent="1" vertex="1">
                    <mxGeometry x="20" y="40" width="830" height="100" as="geometry"/>
                </mxCell>
                <mxCell id="38" value="[ベースイメージ]" style="rounded=0;whiteSpace=wrap;html=1;strokeColor=none;fillColor=#E6E6E6;fontColor=#000000;" parent="1" vertex="1">
                    <mxGeometry x="30" y="50" width="100" height="29" as="geometry"/>
                </mxCell>
            </root>
        </mxGraphModel>
    </diagram>
</mxfile>